<?xml version="1.0" encoding="UTF-8" standalone="no"?>
<svg
   width="30"
   height="30"
   viewBox="0 0 30 30"
   version="1.1"
   id="svg2"
   sodipodi:docname="addon.svg"
   inkscape:version="1.4 (86a8ad7, 2024-10-11)"
   xmlns:inkscape="http://www.inkscape.org/namespaces/inkscape"
   xmlns:sodipodi="http://sodipodi.sourceforge.net/DTD/sodipodi-0.dtd"
   xmlns="http://www.w3.org/2000/svg"
   xmlns:svg="http://www.w3.org/2000/svg">
  <defs
     id="defs2" />
  <sodipodi:namedview
     id="namedview2"
     pagecolor="#000000"
     bordercolor="#000000"
     borderopacity="0.25"
     inkscape:showpageshadow="2"
     inkscape:pageopacity="0.0"
     inkscape:pagecheckerboard="0"
     inkscape:deskcolor="#d1d1d1"
     inkscape:zoom="13.078125"
     inkscape:cx="-2.9820789"
     inkscape:cy="8.1433692"
     inkscape:window-width="1920"
     inkscape:window-height="1017"
     inkscape:window-x="-8"
     inkscape:window-y="-8"
     inkscape:window-maximized="1"
     inkscape:current-layer="svg2" />
  <path
     d="m 13.190274,0.64532789 c 1.206377,-0.14270522 2.371242,0.54168941 2.970348,1.56215351 0.539891,0.847438 0.407263,1.8978154 0.414511,2.8698547 0.0097,1.3017081 0.165543,1.2257327 1.348515,1.2276549 h 2.364495 c 0.55004,-2.235e-4 1.27844,-0.03325 1.796444,0.075672 0.369529,0.074695 0.716967,0.2331209 1.015644,0.4631393 0.421458,0.3237994 0.696462,0.7766883 0.839241,1.2899065 0.08461,0.3041388 0.06252,0.7996189 0.06212,1.1282749 l -0.0023,2.0612623 c -10e-5,0.110507 -0.0031,0.242261 -2.23e-4,0.346192 0.01723,0.631784 -0.146625,1.218581 0.748597,1.097216 0.134552,-0.01828 0.305893,-0.03503 0.444761,-0.05851 1.163919,-0.196466 2.234495,-0.198691 3.231894,0.549772 0.62504,0.460643 1.035405,1.156027 1.13657,1.925836 0.10609,0.750149 -0.0696,1.540157 -0.530145,2.140851 -0.904696,1.180036 -2.354005,1.332394 -3.719044,1.071283 -1.452817,-0.277936 -1.312263,0.301544 -1.315264,1.432753 l 8.94e-4,2.899224 c 4.47e-4,0.452552 0.02438,1.343592 -0.05513,1.747989 -0.06286,0.331252 -0.20331,0.642945 -0.40986,0.909453 -0.350879,0.454337 -0.965428,0.746674 -1.529971,0.814151 -0.378498,0.04523 -0.815569,0.0411 -1.209984,0.03595 -0.519387,-0.0068 -1.502996,0.05227 -1.929882,-0.263842 -0.295644,-0.218891 -0.224289,-1.109055 -0.230189,-1.440677 -0.0037,-0.266371 -6.71e-4,-0.533855 -0.02913,-0.799214 -0.188641,-1.759553 -1.633434,-2.912379 -3.383949,-2.709675 -0.60376,0.08545 -1.134143,0.37398 -1.561942,0.801001 -0.82157,0.8152 -0.990115,1.925534 -0.936699,3.031553 0.02412,0.499459 0.03247,1.213524 -0.590811,1.322346 -0.409924,0.07156 -0.803293,0.05777 -1.215885,0.05733 l -1.31813,-6.71e-4 -1.9159888,0.0011 C 6.4436119,26.234844 4.8869295,26.286943 4.3314936,24.865623 4.1287217,24.346774 4.1754277,23.798824 4.1760334,23.250334 l -2.235e-4,-1.550377 -4.47e-4,-1.766567 c 6.71e-5,-0.35516 -0.049943,-1.03328 0.1043687,-1.367129 0.044076,-0.09533 0.2702157,-0.193395 0.3792403,-0.197273 0.8818661,-0.03149 1.7720292,0.191945 2.6578426,0.05624 0.7183482,-0.11691 1.5043771,-0.589595 1.9302872,-1.177605 0.9324843,-1.30592 0.6522552,-3.307161 -0.7398299,-4.179687 -0.750586,-0.470456 -1.2844415,-0.43886 -2.1276974,-0.43724 l -1.2561153,6.71e-4 C 4.1529039,12.63092 4.1703718,12.456988 4.1737424,11.545481 l 0.0034,-1.001075 -0.00179,-1.3982563 C 4.1749047,8.9094223 4.1677968,8.6641284 4.1794197,8.4306007 4.2161434,7.6941433 4.4969135,7.0667773 5.1448496,6.6807265 5.8549367,6.257648 6.5699478,6.3029705 7.3561802,6.3029034 l 1.6841829,0.00112 c 0.3257569,6.704e-4 0.6470259,0.014439 0.9714999,-0.017099 0.561981,-0.054596 0.52809,-0.4338677 0.533957,-0.8750556 0.0083,-0.4083734 0.01089,-0.8168831 0.008,-1.2253258 -0.0063,-0.9909935 -0.02108,-1.5972841 0.631414,-2.4523752 0.484451,-0.6348871 1.219828,-0.99429677 2.005216,-1.08896487 z"
     id="path2"
     style="fill:#f8f8f8;fill-opacity:1;stroke-width:0.0337221" />
</svg>
