<?xml version="1.0" encoding="UTF-8" standalone="no"?>
<!-- Uploaded to: SVG Repo, www.svgrepo.com, Generator: SVG Repo Mixer Tools -->

<svg
   width="30"
   height="30"
   viewBox="0 0 0.9 0.9"
   fill="none"
   version="1.1"
   id="svg4"
   sodipodi:docname="code.svg"
   inkscape:version="1.4 (86a8ad7, 2024-10-11)"
   xmlns:inkscape="http://www.inkscape.org/namespaces/inkscape"
   xmlns:sodipodi="http://sodipodi.sourceforge.net/DTD/sodipodi-0.dtd"
   xmlns="http://www.w3.org/2000/svg"
   xmlns:svg="http://www.w3.org/2000/svg">
  <defs
     id="defs4" />
  <sodipodi:namedview
     id="namedview4"
     pagecolor="#000000"
     bordercolor="#000000"
     borderopacity="0.25"
     inkscape:showpageshadow="2"
     inkscape:pageopacity="0.0"
     inkscape:pagecheckerboard="0"
     inkscape:deskcolor="#d1d1d1"
     inkscape:zoom="12.3"
     inkscape:cx="15.934959"
     inkscape:cy="22.317073"
     inkscape:window-width="1440"
     inkscape:window-height="837"
     inkscape:window-x="-8"
     inkscape:window-y="-8"
     inkscape:window-maximized="1"
     inkscape:current-layer="svg4" />
  <path
     id="path1"
     d="m 0.64373238,0.03293827 c -0.0189601,5.3839e-4 -0.0302831,0.01327813 -0.0302831,0.01327813 0,0 0.002409,-0.0016413 0.006046,-0.0032055 -0.001933,8.671e-4 -0.00394,0.0019087 -0.006046,0.0032055 L 0.28384204,0.34945066 0.13516158,0.23566806 c -0.0171847,-0.0150601 -0.0334397,0.002224 -0.0334397,0.002224 l -0.05680271,0.0513428 c -0.02438051,0.0197665 -0.0040629,0.034568 -0.0040629,0.034568 L 0.17595722,0.44780455 0.04085426,0.57195713 c 0,0 -0.01388338,0.0104419 0,0.0290958 l 0.06272899,0.0576702 c 0,0 0.0148996,0.0161728 0.0369099,-0.002224 l 0.14323072,-0.10978084 0.33564348,0.30806897 0.001361,0.001517 c 0.0143893,0.0148863 0.0318309,0.0100116 0.0318309,0.0100116 l 0.19310498,-0.0961782 c 0.0247224,-0.0170308 0.0212491,-0.0381665 0.0212491,-0.0381665 V 0.15762849 c 0,-0.0252431 -0.0255665,-0.0339712 -0.0255665,-0.0339712 L 0.67397479,0.04210873 C 0.6625464,0.03496901 0.6523507,0.03269355 0.64373238,0.03293827 Z m -0.019573,0.0083864 c -4.8625e-4,1.4653e-4 -9.9626e-4,3.5122e-4 -0.001495,5.2541e-4 5.2552e-4,-1.7002e-4 9.3772e-4,-3.7581e-4 0.001495,-5.2541e-4 z m 0.0351728,0.2174905 v 0.377993 L 0.41342196,0.44861713 Z"
     style="fill:#ffffff;fill-opacity:1;stroke-width:0.999998" />
</svg>
