<?xml version="1.0" encoding="UTF-8" standalone="no"?>
<svg
   width="30"
   height="30"
   viewBox="0 0 30 30"
   version="1.1"
   id="svg6"
   sodipodi:docname="doxygen.svg"
   inkscape:version="1.4 (86a8ad7, 2024-10-11)"
   xmlns:inkscape="http://www.inkscape.org/namespaces/inkscape"
   xmlns:sodipodi="http://sodipodi.sourceforge.net/DTD/sodipodi-0.dtd"
   xmlns="http://www.w3.org/2000/svg"
   xmlns:svg="http://www.w3.org/2000/svg">
  <defs
     id="defs6" />
  <sodipodi:namedview
     id="namedview6"
     pagecolor="#000000"
     bordercolor="#000000"
     borderopacity="0.25"
     inkscape:showpageshadow="2"
     inkscape:pageopacity="0.0"
     inkscape:pagecheckerboard="0"
     inkscape:deskcolor="#d1d1d1"
     inkscape:zoom="13.915861"
     inkscape:cx="21.989296"
     inkscape:cy="19.869413"
     inkscape:window-width="1440"
     inkscape:window-height="837"
     inkscape:window-x="-8"
     inkscape:window-y="-8"
     inkscape:window-maximized="1"
     inkscape:current-layer="svg6" />
  <path
     id="path2"
     d="m 16.798613,1.0540127 c -0.140348,-0.00451 -0.281135,-0.00524 -0.429924,0.00303 -0.300947,0.01724 -0.604071,0.028522 -0.903625,0.060336 -1.490334,0.1582188 -2.946508,0.601236 -4.389403,0.9915139 L 7.5202487,3.0608319 4.857914,3.7760876 C 4.4843751,3.8756861 3.8182738,4.0293553 3.4690228,4.1533926 L 8.1278815,21.487258 9.3372496,25.99506 c 0.2555407,0.987671 0.5220342,1.972492 0.7992904,2.954242 0.26425,-0.08616 0.565947,-0.164587 0.837281,-0.233277 0.67041,-0.169779 1.344482,-0.375148 2.015123,-0.537321 l 5.235532,-1.405221 c 0.809008,-0.225638 1.616446,-0.41039 2.417035,-0.675336 2.083693,-0.689455 4.122039,-1.801434 5.242563,-3.772132 0.541041,-0.957015 0.799,-2.048247 0.743607,-3.146241 -0.04006,-0.972227 -0.299268,-1.753765 -0.549002,-2.683315 -0.211122,-0.807614 -0.426534,-1.614011 -0.646191,-2.419305 L 23.222873,5.8246658 C 22.758243,4.1424527 21.893999,2.826874 20.356633,1.9339105 19.424355,1.3924036 18.292696,1.1260058 17.225476,1.0740609 17.078806,1.066889 16.938962,1.0585034 16.798613,1.0539888 Z m 6.199488,2.7032744 c 0.304547,0.5605988 0.523833,1.0691792 0.697678,1.6832943 0.114676,0.405179 0.225625,0.9592983 0.382747,1.3346835 0.04151,0.09929 0.539288,0.6696459 0.641655,0.8035997 0.43374,0.5658941 0.815697,1.1695557 1.141437,1.8037329 1.028318,1.9911375 1.48838,4.2270645 1.329808,6.4624785 -0.02381,0.360578 -0.074,0.710877 -0.124748,1.067043 -0.01852,0.130354 -0.110801,0.458947 -0.101045,0.563404 0.04256,0.456094 0.16019,0.892288 0.172151,1.361447 0.02247,0.878221 0.02966,1.731766 -0.224546,2.581362 -0.03181,0.107534 -0.05517,0.234231 -0.06249,0.348385 0.222444,-0.21356 0.37935,-0.580244 0.514639,-0.863365 1.59514,-3.295608 1.811727,-7.090956 0.602076,-10.546705 C 27.179535,8.1132198 25.822836,6.112721 24.029988,4.5507937 23.868743,4.4097323 23.17537,3.8205599 22.998101,3.7572871 Z M 15.356988,6.47315 c 0.458799,-0.013985 0.969262,0.072372 1.354982,0.295764 0.807499,0.4676491 1.089174,1.3292724 1.320734,2.1698102 l 1.699626,6.3411328 0.491164,1.818703 c 0.138135,0.513984 0.275078,0.976505 0.332735,1.507967 0.233883,2.154938 -1.732807,2.678699 -3.372714,3.122426 l -1.632602,0.440472 c -0.361507,0.102076 -0.820731,0.199631 -1.159129,0.309372 -0.05644,-0.32063 -0.241922,-0.934414 -0.330354,-1.265845 L 13.361031,18.592124 11.51942,11.695526 10.772411,8.9115059 C 10.658896,8.4838053 10.534344,8.0525307 10.431397,7.6233194 c 0.838214,-0.2068241 1.691777,-0.461118 2.529875,-0.67613 0.750248,-0.192541 1.419644,-0.4133025 2.202698,-0.4620182 0.06292,-0.00598 0.127475,-0.010022 0.193018,-0.012018 z M 3.6750829,7.1294341 C 1.5814678,10.186399 0.80428093,13.956415 1.5182014,17.592105 c 0.5381214,2.730875 1.8975719,5.232151 3.8964257,7.169115 0.6347868,0.609442 1.3240847,1.159476 2.0593517,1.643035 0.3148239,0.210831 0.6307935,0.38889 0.9611207,0.572023 0.2158248,0.121528 0.4343272,0.238142 0.6553775,0.349973 C 8.9780646,26.878344 8.8610144,26.431593 8.7393696,25.986125 8.7011654,25.843054 8.5875164,25.313026 8.4884015,25.2466 7.279678,24.436836 6.2112582,23.493046 5.3322936,22.324678 2.7203103,18.88356 2.1256448,14.31666 3.7692105,10.321378 3.8910696,10.018108 4.0808604,9.6628086 4.2099079,9.3586681 4.3118695,9.118341 3.9335015,8.1568572 3.8882872,7.8610205 3.8713413,7.7501758 3.696183,7.1542856 3.6750829,7.1294341 Z"
     style="fill:#ffffff;fill-opacity:1;stroke-width:1" />
</svg>
