<?xml version="1.0" encoding="UTF-8" standalone="no"?>
<!-- Generator: Adobe Illustrator 16.0.0, SVG Export Plug-In . SVG Version: 6.00 Build 0)  -->

<svg
   version="1.1"
   id="Capa_1"
   x="0px"
   y="0px"
   width="30"
   height="30"
   viewBox="0 0 2.4969729 2.4969727"
   xml:space="preserve"
   inkscape:version="1.4 (86a8ad7, 2024-10-11)"
   sodipodi:docname="edsp.svg"
   xmlns:inkscape="http://www.inkscape.org/namespaces/inkscape"
   xmlns:sodipodi="http://sodipodi.sourceforge.net/DTD/sodipodi-0.dtd"
   xmlns="http://www.w3.org/2000/svg"
   xmlns:svg="http://www.w3.org/2000/svg"
   xmlns:rdf="http://www.w3.org/1999/02/22-rdf-syntax-ns#"
   xmlns:cc="http://creativecommons.org/ns#"
   xmlns:dc="http://purl.org/dc/elements/1.1/"><metadata
     id="metadata3949"><rdf:RDF><cc:Work
         rdf:about=""><dc:format>image/svg+xml</dc:format><dc:type
           rdf:resource="http://purl.org/dc/dcmitype/StillImage" /></cc:Work></rdf:RDF></metadata><defs
     id="defs3947" /><sodipodi:namedview
     pagecolor="#000000"
     bordercolor="#666666"
     borderopacity="1"
     objecttolerance="10"
     gridtolerance="10"
     guidetolerance="10"
     inkscape:pageopacity="0"
     inkscape:pageshadow="2"
     inkscape:window-width="1920"
     inkscape:window-height="1017"
     id="namedview3945"
     showgrid="false"
     inkscape:zoom="20.85965"
     inkscape:cx="20.014717"
     inkscape:cy="10.474768"
     inkscape:window-x="-8"
     inkscape:window-y="-8"
     inkscape:window-maximized="1"
     inkscape:current-layer="layer1"
     inkscape:showpageshadow="2"
     inkscape:pagecheckerboard="0"
     inkscape:deskcolor="#d1d1d1" /><g
     inkscape:groupmode="layer"
     id="layer1"
     inkscape:label="Layer 1"
     transform="translate(0,-31.961254)"><path
       id="path5018"
       style="fill:#ffffff;fill-opacity:1;stroke-width:0.0191764"
       d="m 0.70604525,32.548048 c -0.36267977,0 -0.65770903,0.290734 -0.65770903,0.648093 0,0.357354 0.29503422,0.648093 0.65770903,0.648093 0.23602156,0 0.45522085,-0.12566 0.57203795,-0.327928 l -0.1230517,-0.06123 c -0.092456,0.160093 -0.26450751,0.259531 -0.44898625,0.259531 -0.17603481,0 -0.33181118,-0.08834 -0.42548799,-0.223024 V 33.260935 H 1.3637892 v -0.06479 c 0,-0.08252 -0.015741,-0.161487 -0.044409,-0.234144 C 1.2239027,32.720018 0.984973,32.548048 0.70604525,32.548048 Z m 0.84184935,0.02371 c -0.044212,0.0024 -0.091105,0.02378 -0.142144,0.06462 -0.044025,0.03681 -0.086655,0.0932 -0.1283318,0.158964 0.00416,0.0057 0.00856,0.0112 0.012553,0.01704 0.042383,-0.0679 0.085544,-0.125849 0.1296955,-0.162775 0.062301,-0.04986 0.1166723,-0.06834 0.166202,-0.05658 0.1280817,0.03051 0.2089003,0.258511 0.2945336,0.499899 0.02686,0.07574 0.054201,0.151763 0.083363,0.223864 0.00202,-9e-6 0.00247,-2.8e-5 0.00455,-3.5e-5 l 0.017275,-3.5e-5 c -0.029944,-0.07358 -0.058058,-0.151512 -0.085636,-0.229248 -0.087332,-0.246186 -0.1697666,-0.478728 -0.3086957,-0.511824 -0.014199,-0.0034 -0.028623,-0.0047 -0.04336,-0.0039 z m -0.00185,0.0891 c -0.053857,-0.0017 -0.1107843,0.02566 -0.1731954,0.08308 -0.02532,0.02328 -0.049399,0.05213 -0.072593,0.08466 0.00389,0.0061 0.00784,0.012 0.011539,0.01815 0.024298,-0.03501 0.049446,-0.06608 0.075916,-0.09043 0.066047,-0.06073 0.1238602,-0.08541 0.1769718,-0.07539 0.1247662,0.02352 0.2099225,0.235437 0.3000586,0.459792 0.023824,0.05928 0.047928,0.118858 0.073083,0.176272 0.00832,-5.9e-5 0.012433,-1.31e-4 0.02203,-1.74e-4 -0.026075,-0.05915 -0.051128,-0.120692 -0.07581,-0.182078 -0.092122,-0.229242 -0.1791333,-0.445745 -0.3150947,-0.471365 -0.00758,-0.0014 -0.01521,-0.0023 -0.022904,-0.0025 z m -0.83999608,0.01682 c 0.18347852,0 0.34497878,0.09596 0.43706228,0.240334 V 33.13135 H 0.28055726 v -0.230646 c 0.0936769,-0.134681 0.24945318,-0.223025 0.42548799,-0.223025 z m 0.81856088,0.07154 c -0.057684,0.0011 -0.1183703,0.03459 -0.18456,0.10221 -0.00537,0.0055 -0.010633,0.01125 -0.01584,0.01713 0.00336,0.0061 0.00662,0.01223 0.00979,0.01842 0.00707,-0.0083 0.01421,-0.01635 0.021575,-0.02388 0.07055,-0.07208 0.132827,-0.103067 0.1901549,-0.09462 0.1229242,0.01804 0.212021,0.214663 0.3063526,0.42283 0.019144,0.04224 0.038586,0.08439 0.058361,0.12592 0.00681,-7e-5 0.013943,-1.13e-4 0.021925,-1.76e-4 -0.020796,-0.0435 -0.041166,-0.08797 -0.061264,-0.132352 -0.096501,-0.213001 -0.1876651,-0.414206 -0.3219485,-0.433916 -0.00813,-0.0012 -0.016307,-0.0017 -0.024547,-0.0015 z m -0.020947,0.08662 c -0.049376,0.0031 -0.1006744,0.03019 -0.1549772,0.08088 0.00278,0.0062 0.00548,0.01234 0.00808,0.01857 0.06181,-0.05986 0.1180553,-0.08664 0.1707475,-0.08102 0.121471,0.01297 0.2143796,0.194855 0.3126821,0.387408 0.012921,0.02531 0.025933,0.05067 0.039059,0.07585 0.00535,-7e-5 0.015922,-1.38e-4 0.022414,-2.1e-4 -0.014405,-0.02753 -0.028675,-0.05526 -0.042836,-0.08298 -0.1007173,-0.197314 -0.1959191,-0.383704 -0.3288721,-0.397898 -0.00872,-9.44e-4 -0.017473,-0.0011 -0.026296,-6.02e-4 z m -0.00686,0.08574 c -0.040752,0.0014 -0.082507,0.01824 -0.1258841,0.0506 0.00218,0.0063 0.00422,0.01251 0.00622,0.01881 0.047637,-0.0374 0.092396,-0.05435 0.1353604,-0.05119 0.1215119,0.0089 0.217713,0.176602 0.3195357,0.354224 0.00457,0.008 0.00922,0.01596 0.013812,0.02396 0.00566,-1.85e-4 0.013043,-2.14e-4 0.022694,-3.43e-4 -0.00608,-0.01055 -0.012209,-0.02107 -0.018255,-0.03161 -0.1044834,-0.18227 -0.2031638,-0.354418 -0.3360755,-0.36412 -0.00578,-4.3e-4 -0.011592,-5.17e-4 -0.017415,-3.22e-4 z m -1.06487393,0.381359 c 0.0447954,0.06997 0.086594,0.150765 0.12595393,0.22792 0.0242709,0.04756 0.047692,0.09326 0.0708796,0.135186 0.008295,0.0013 0.0166382,0.0026 0.0250717,0.0036 C 0.628275,33.624313 0.6026274,33.574653 0.5765519,33.523547 0.5494945,33.470517 0.5221877,33.417025 0.493923,33.366718 c 0.0233527,0.03838 0.0458511,0.07789 0.0676273,0.116267 0.0402442,0.07083 0.0780929,0.136649 0.11623294,0.188827 0.008239,4.95e-4 0.0165493,7.09e-4 0.024897,7.74e-4 -0.0405683,-0.05329 -0.0811422,-0.12433 -0.12277184,-0.197604 -0.0334211,-0.05884 -0.0673457,-0.11808 -0.10287527,-0.171971 z m 0.0457378,0 c 0.0305779,0.04243 0.05982,0.0873 0.0877341,0.130745 0.0669106,0.104224 0.12683963,0.19773 0.192113,0.235822 0.0112893,-0.0013 0.0224889,-0.0028 0.0336044,-0.0049 -0.0688884,-0.02373 -0.13676831,-0.128927 -0.20788647,-0.239669 -0.0259458,-0.04041 -0.053048,-0.08205 -0.0813701,-0.121967 z m 0.0310861,0 c 0.0208919,0.02659 0.0411591,0.05379 0.0607388,0.08025 0.0868409,0.117289 0.16200098,0.218505 0.2498448,0.21166 0.0980084,-0.0077 0.1773866,-0.134709 0.25561443,-0.291911 h -0.022204 c -0.0743545,0.148709 -0.14890007,0.267252 -0.2352282,0.274008 -0.0756045,0.0062 -0.15111243,-0.09581 -0.2308923,-0.203582 -0.0172148,-0.02324 -0.0350779,-0.04692 -0.053291,-0.07043 z m 0.0401082,0 c 0.008372,0.0094 0.0167861,0.01892 0.0250017,0.02829 0.0836685,0.09539 0.15578124,0.177854 0.23795578,0.171063 0.072158,-0.006 0.14043273,-0.08707 0.20872265,-0.199352 H 0.9967649 c -0.0626789,0.101367 -0.12548693,0.17637 -0.18686782,0.181448 -0.0705405,0.0063 -0.14315907,-0.07675 -0.21980752,-0.164139 -0.004972,-0.0057 -0.0103193,-0.01156 -0.0153857,-0.01731 z m 0.54584713,0 c -0.055709,0.131516 -0.1105063,0.254076 -0.17679712,0.318801 0.0176483,-0.009 0.0347553,-0.01895 0.0511929,-0.03004 0.0541588,-0.07233 0.10046432,-0.177761 0.14742412,-0.288765 z m 0.030178,0 c -0.00962,0.02538 -0.019312,0.05077 -0.028674,0.07612 -0.020626,0.05584 -0.041079,0.110149 -0.062557,0.160223 0.014107,-0.01363 0.027393,-0.02821 0.039828,-0.04364 0.014037,-0.03565 0.027948,-0.07255 0.042171,-0.111058 0.010047,-0.02721 0.020413,-0.05445 0.030771,-0.08165 z m 0.022973,0 c -0.021968,0.05743 -0.040755,0.115702 -0.058431,0.171691 0.0091,-0.01267 0.017829,-0.02571 0.025736,-0.03941 l 0.018708,-0.03242 c 0.011057,-0.03338 0.022758,-0.06668 0.035597,-0.09987 z m 0.5170655,0.0413 -0.068222,2.8e-4 -0.068222,3.22e-4 -0.0014,0.01029 c -0.00852,0.06321 -0.010411,0.07697 -0.01196,0.08634 -9.919e-4,0.006 -0.00237,0.01473 -0.00307,0.01944 -6.884e-4,0.0047 -0.00178,0.01168 -0.00238,0.01546 -6.023e-4,0.0038 -0.00172,0.01147 -0.00245,0.01713 -7.314e-4,0.0057 -0.00159,0.01164 -0.00191,0.01333 l -6.024e-4,0.0031 -0.042661,5.17e-4 c -0.038005,4.52e-4 -0.043955,7.74e-4 -0.054445,0.003 -0.057749,0.0121 -0.1021746,0.04329 -0.1246252,0.0876 -0.01,0.01973 -0.01406,0.03911 -0.013042,0.06217 0.00257,0.0584 0.047153,0.105335 0.105218,0.110813 h 3.5e-5 c 0.015648,0.0015 0.2076068,3.86e-4 0.2086177,-0.0012 5.161e-4,-7.32e-4 0.00125,-0.0039 0.00168,-0.0071 0.0011,-0.0081 0.00761,-0.05219 0.00909,-0.06168 6.883e-4,-0.0043 0.00204,-0.01154 0.00304,-0.01602 9.919e-4,-0.0045 0.00178,-0.0085 0.00178,-0.009 4e-7,-4.73e-4 -0.036174,-8.65e-4 -0.080391,-8.65e-4 h -0.080398 l -0.00619,-0.0029 c -0.012695,-0.006 -0.022748,-0.02049 -0.022624,-0.0327 1.057e-4,-0.01034 0.00703,-0.02062 0.018044,-0.02674 0.010834,-0.0061 0.013695,-0.0063 0.1051481,-0.0063 h 0.084552 l 5.162e-4,-0.0026 c 3.227e-4,-0.0014 0.00114,-0.0058 0.00185,-0.0097 7.097e-4,-0.0039 0.0019,-0.01009 0.00256,-0.0137 0.00118,-0.0063 0.00478,-0.02678 0.0157,-0.08976 0.00264,-0.01525 0.00536,-0.03032 0.00601,-0.03347 6.453e-4,-0.0032 0.00202,-0.01059 0.00304,-0.01657 0.00101,-0.006 0.0038,-0.02194 0.00619,-0.03546 0.00239,-0.01352 0.00567,-0.03229 0.00731,-0.04172 0.00164,-0.0094 0.00323,-0.0183 0.00356,-0.01972 z m 0.4295442,0.0011 -0.1259539,4.52e-4 c -0.090456,3.23e-4 -0.1280374,8.64e-4 -0.1332623,0.0019 -0.020805,0.0039 -0.050995,0.01622 -0.072348,0.02958 -0.022892,0.01433 -0.038209,0.03 -0.049375,0.05056 -0.011247,0.02071 -0.015135,0.03609 -0.015106,0.05944 1.51e-5,0.01318 5.162e-4,0.01849 0.00259,0.02598 0.012093,0.04393 0.047223,0.07839 0.093189,0.09134 0.00947,0.0027 0.013251,0.0031 0.031961,0.0034 0.011672,2.16e-4 0.023875,6.89e-4 0.0271,0.0011 0.019312,0.0022 0.034893,0.01502 0.036785,0.03021 0.00164,0.01298 -0.00555,0.02376 -0.020142,0.03028 l -0.00797,0.0036 -0.102036,5.59e-4 c -0.05613,3.01e-4 -0.102383,8.66e-4 -0.1027702,0.0013 -8.182e-4,7.52e-4 -0.00887,0.03309 -0.017798,0.07137 -5.808e-4,0.0025 -0.00213,0.009 -0.00343,0.01423 -0.00131,0.0054 -0.00211,0.01006 -0.00178,0.01055 3.226e-4,4.94e-4 0.057013,8.64e-4 0.1259539,8.64e-4 0.1069409,0 0.1265971,-2.58e-4 0.1339966,-0.0017 0.040345,-0.008 0.089737,-0.03719 0.1102534,-0.06518 0.018241,-0.02489 0.026653,-0.05166 0.025211,-0.08046 -0.00143,-0.02901 -0.013476,-0.05505 -0.035352,-0.07662 -0.016316,-0.01609 -0.036781,-0.02828 -0.058885,-0.03504 -0.00949,-0.0029 -0.012474,-0.0033 -0.03759,-0.004 -0.028849,-8.65e-4 -0.032476,-0.0015 -0.04322,-0.0075 -0.019054,-0.01054 -0.022645,-0.03354 -0.00742,-0.04746 0.00446,-0.004 0.013664,-0.0084 0.02091,-0.0097 0.00267,-4.95e-4 0.04954,-0.0013 0.104169,-0.0016 l 0.099343,-6.67e-4 0.010736,-0.04462 c 0.0059,-0.02453 0.011095,-0.04628 0.011503,-0.04836 z m 0.1524595,3.87e-4 c -0.057686,-1.93e-4 -0.1065931,-8.6e-5 -0.1086797,2.8e-4 -0.00433,7.52e-4 -0.00354,-0.0025 -0.01014,0.04175 -0.00513,0.03449 -0.00737,0.04728 -0.00913,0.05259 -4.948e-4,0.0015 0.00878,0.0016 0.079587,0.0014 l 0.080181,-2.8e-4 0.00639,0.0028 c 0.017997,0.0078 0.028334,0.02905 0.021261,0.04374 -0.00317,0.0066 -0.010161,0.01352 -0.016539,0.01644 -0.012358,0.0057 -0.012501,0.0057 -0.1031898,0.0057 -0.046811,2.2e-5 -0.085418,4.52e-4 -0.085741,9.44e-4 -3.226e-4,5.16e-4 -0.00174,0.0076 -0.00315,0.01574 -0.00399,0.02297 -0.00949,0.05415 -0.02724,0.154488 -0.00903,0.05104 -0.016433,0.09311 -0.016433,0.09347 v 3.5e-5 c 0,3.66e-4 0.030556,6.67e-4 0.067872,6.67e-4 h 0.067838 l 6.238e-4,-0.0038 c 3.226e-4,-0.002 0.0012,-0.0083 0.00195,-0.01398 7.528e-4,-0.0057 0.00242,-0.01725 0.00363,-0.02573 0.00122,-0.0085 0.00285,-0.02032 0.0036,-0.0263 7.529e-4,-0.006 0.00265,-0.01935 0.00427,-0.02972 0.00283,-0.01825 0.00675,-0.04476 0.00871,-0.05889 l 9.44e-4,-0.0068 0.043675,-7.1e-4 c 0.03847,-6.03e-4 0.044955,-0.0011 0.054864,-0.0032 0.036208,-0.0078 0.065923,-0.0225 0.090217,-0.04458 0.022388,-0.02035 0.035433,-0.04133 0.043115,-0.06931 0.00269,-0.0098 0.00316,-0.01403 0.00322,-0.02868 7.1e-5,-0.0181 -9.441e-4,-0.02479 -0.00615,-0.04003 -0.012644,-0.03702 -0.041372,-0.06345 -0.081615,-0.07508 l -0.00909,-0.0026 z m -0.1901196,0.125534 -0.066123,4.52e-4 c 0.00909,0.0155 0.018294,0.03075 0.027764,0.04528 -0.00998,-0.01437 -0.019581,-0.02989 -0.029233,-0.04525 l -0.016785,1.05e-4 c -0.00251,1.6e-5 -0.0041,5.1e-5 -0.00658,7e-5 0.00716,0.01157 0.014367,0.02301 0.021715,0.0341 0.00958,0.0063 0.018697,0.01321 0.02689,0.02129 0.023166,0.02284 0.034098,0.05294 0.038639,0.08403 0.0054,-0.03061 0.013678,-0.07622 0.01598,-0.08949 7.528e-4,-0.0043 0.00146,-0.0081 0.00211,-0.01133 3.442e-4,-0.0015 9.439e-4,-0.0032 0.00127,-0.0046 1.72e-4,-7.11e-4 1.751e-4,-0.0011 4.517e-4,-0.0021 1.506e-4,-5.16e-4 4.732e-4,-0.0011 8.418e-4,-0.0021 2.92e-5,-7.8e-5 4.02e-5,-1.99e-4 6.99e-5,-3.23e-4 -0.00577,-0.0098 -0.011423,-0.01982 -0.016993,-0.0301 z m -0.094203,7.1e-4 c -0.00875,7.4e-5 -0.015416,1.8e-4 -0.023463,2.8e-4 0.00325,0.0049 0.00645,0.01003 0.00972,0.01494 0.012226,0.0041 0.023945,0.0095 0.034863,0.01622 -0.00716,-0.01018 -0.01411,-0.02086 -0.02112,-0.03143 z m 0.2716691,0.197455 c -5.592e-4,0.0037 -0.00118,0.0077 -0.00172,0.01119 -0.00157,0.01009 -0.00354,0.02339 -0.00419,0.02856 -4.088e-4,0.0033 -0.00125,0.0089 -0.00196,0.01385 0.05918,0.01204 0.1218332,0.0025 0.1865182,-0.02903 4.11e-5,0 6.36e-5,-1.7e-5 1.047e-4,-3.5e-5 1.132e-4,-4.9e-5 2.367e-4,-1.12e-4 3.442e-4,-1.75e-4 h 3.48e-5 c 9.54e-5,-4.6e-5 1.969e-4,-9e-5 3.226e-4,-1.39e-4 l -0.00496,-0.0079 -0.00353,-0.0084 c -0.059129,0.0193 -0.112157,0.0182 -0.1620757,-0.0033 -0.00303,-0.0013 -0.00589,-0.0032 -0.00888,-0.0046 z m -1.34031522,0.191519 c -0.0144566,0.0039 -0.0290674,0.0075 -0.0438143,0.01049 0.015573,-0.0017 0.0302577,-0.0051 0.0438143,-0.01049 z" /><g
       id="path4678"
       transform="matrix(0.02336616,0,0,0.02169307,3.4432747,33.928625)" /><g
       id="path1" /></g></svg>
