<?xml version="1.0" encoding="UTF-8" standalone="no"?>
<!-- Generator: Adobe Illustrator 16.0.0, SVG Export Plug-In . SVG Version: 6.00 Build 0)  -->

<svg
   version="1.1"
   id="Capa_1"
   x="0px"
   y="0px"
   width="30"
   height="30"
   viewBox="0 0 2.4969729 2.4969727"
   xml:space="preserve"
   inkscape:version="1.4 (86a8ad7, 2024-10-11)"
   sodipodi:docname="edsp.svg"
   xmlns:inkscape="http://www.inkscape.org/namespaces/inkscape"
   xmlns:sodipodi="http://sodipodi.sourceforge.net/DTD/sodipodi-0.dtd"
   xmlns="http://www.w3.org/2000/svg"
   xmlns:svg="http://www.w3.org/2000/svg"
   xmlns:rdf="http://www.w3.org/1999/02/22-rdf-syntax-ns#"
   xmlns:cc="http://creativecommons.org/ns#"
   xmlns:dc="http://purl.org/dc/elements/1.1/"><metadata
     id="metadata3949"><rdf:RDF><cc:Work
         rdf:about=""><dc:format>image/svg+xml</dc:format><dc:type
           rdf:resource="http://purl.org/dc/dcmitype/StillImage" /></cc:Work></rdf:RDF></metadata><defs
     id="defs3947" /><sodipodi:namedview
     pagecolor="#000000"
     bordercolor="#666666"
     borderopacity="1"
     objecttolerance="10"
     gridtolerance="10"
     guidetolerance="10"
     inkscape:pageopacity="0"
     inkscape:pageshadow="2"
     inkscape:window-width="1920"
     inkscape:window-height="1017"
     id="namedview3945"
     showgrid="false"
     inkscape:zoom="20.85965"
     inkscape:cx="11.19386"
     inkscape:cy="20.110596"
     inkscape:window-x="-8"
     inkscape:window-y="-8"
     inkscape:window-maximized="1"
     inkscape:current-layer="layer1"
     inkscape:showpageshadow="2"
     inkscape:pagecheckerboard="0"
     inkscape:deskcolor="#d1d1d1" /><g
     inkscape:groupmode="layer"
     id="layer1"
     inkscape:label="Layer 1"
     transform="translate(0,-31.961254)"><path
       id="path5018"
       style="fill:#ffffff;fill-opacity:1;stroke-width:0.0199485"
       d="m 0.68420242,32.535549 c -0.37728654,0 -0.6841979268619,0.302444 -0.6841979268619,0.674196 0,0.371744 0.3069165868619,0.674193 0.6841979268619,0.674193 0.24552716,0 0.47355458,-0.130721 0.59507648,-0.341135 l -0.1280075,-0.06369 c -0.09618,0.16654 -0.27516057,0.269983 -0.46706898,0.269983 -0.18312457,0 -0.34517469,-0.0919 -0.4426243,-0.232007 V 33.277148 H 1.3684368 v -0.06741 c 0,-0.08585 -0.016374,-0.167991 -0.046198,-0.243574 -0.099324,-0.251726 -0.34787579,-0.430621 -0.63803673,-0.430621 z m 0.83977858,0.0064 c -0.048037,0.0026 -0.098654,0.0255 -0.1525251,0.0686 -4.6e-6,1.53e-4 -4.6e-6,3.08e-4 0,4.61e-4 -0.041862,0.03501 -0.082058,0.08597 -0.1211688,0.145396 0.0083,0.0099 0.016218,0.0202 0.023972,0.03058 0.039981,-0.06275 0.080334,-0.116453 0.1212052,-0.150635 v 4.61e-4 c 0.047879,-0.03832 0.090249,-0.05817 0.1289534,-0.06074 0.012903,-8.6e-4 0.025441,1.73e-4 0.037576,0.003 0.062808,0.01496 0.1163645,0.08002 0.1647838,0.173951 0.041691,0.08088 0.07938,0.18382 0.1175311,0.290645 -0.035582,-0.08663 -0.071238,-0.170093 -0.1105475,-0.237341 -0.052739,-0.09023 -0.1119058,-0.155153 -0.1861727,-0.169148 -0.06611,-0.01244 -0.135526,0.01653 -0.210654,0.08567 -0.020841,0.01916 -0.040667,0.04234 -0.059802,0.06799 0.00736,0.01002 0.014523,0.02007 0.021353,0.03044 0.020749,-0.02849 0.042064,-0.05359 0.064204,-0.07395 0.050875,-0.04678 0.096247,-0.07222 0.1376834,-0.07781 0.013814,-0.0018 0.027197,-0.0016 0.040196,8.6e-4 0.061105,0.01152 0.1147028,0.07067 0.1643471,0.157326 0.04377,0.07641 0.084304,0.17478 0.1254247,0.276676 -0.03761,-0.08139 -0.075441,-0.16009 -0.1162581,-0.222897 -0.054184,-0.08338 -0.1137569,-0.142641 -0.187046,-0.153399 -0.070054,-0.01023 -0.1429779,0.02517 -0.2214574,0.104438 0.00648,0.01023 0.012882,0.02053 0.018841,0.03109 0.00173,-0.002 0.00331,-0.0039 0.00505,-0.0058 0.072591,-0.07418 0.134809,-0.104414 0.1910109,-0.09614 0.060268,0.0088 0.1145825,0.06273 0.1656206,0.142487 0.048563,0.07588 0.094166,0.174841 0.140739,0.277512 -0.042809,-0.08308 -0.085781,-0.162921 -0.1315691,-0.225973 -0.055718,-0.07672 -0.1163285,-0.130821 -0.1887919,-0.138557 -0.055646,-0.006 -0.1125411,0.01611 -0.1719862,0.0653 0.00556,0.01059 0.011153,0.02118 0.016187,0.03208 0.046115,-0.04017 0.088609,-0.06131 0.1282621,-0.06416 0.00783,-5.54e-4 0.015556,-3.69e-4 0.023171,4.6e-4 0.059647,0.0064 0.1139006,0.0552 0.1660933,0.128481 0.048682,0.06836 0.095362,0.157932 0.1428852,0.250885 -0.04262,-0.07337 -0.085124,-0.143783 -0.1302267,-0.199351 -0.057146,-0.0704 -0.1191565,-0.119277 -0.1914109,-0.12455 -0.041455,-0.003 -0.083384,0.01002 -0.1262977,0.03692 0.00107,0.0026 0.00224,0.0053 0.00328,0.0079 0.00304,0.0078 0.00581,0.01553 0.00859,0.02336 0.039436,-0.02585 0.076614,-0.03747 0.1118201,-0.03488 0.059863,0.0044 0.1147041,0.04858 0.1682392,0.115822 0.053535,0.06724 0.1052385,0.157151 0.1581999,0.249538 0.00714,0.01248 0.014381,0.02497 0.021572,0.03747 0.00636,-0.0018 0.012657,-0.0035 0.018698,-0.0047 0.00738,-0.0014 0.00901,-0.0011 0.015278,-0.0013 0.00626,-2.24e-4 0.014579,-2.92e-4 0.025791,-4.61e-4 0.02133,-2.92e-4 0.054166,-6.22e-4 0.09767,-8.6e-4 -0.033222,-0.08013 -0.064244,-0.166064 -0.094649,-0.251771 -0.045425,-0.12805 -0.089411,-0.252545 -0.1407029,-0.350084 -0.051291,-0.09754 -0.1099285,-0.168978 -0.1857726,-0.187046 -0.015474,-0.0036 -0.031168,-0.0053 -0.047181,-0.0044 z m -0.83977858,0.128465 c 0.19086797,0 0.35887258,0.09982 0.45466468,0.250014 v 0.221937 H 0.24157812 v -0.239976 c 0.0974496,-0.140105 0.25949973,-0.232008 0.4426243,-0.232007 z m -0.32291059,0.650441 c 0.0445648,0.07081 0.0863348,0.151985 0.1260068,0.229751 0.024754,0.04852 0.0486836,0.09539 0.0724251,0.138485 0.0157743,0.004 0.0318499,0.0075 0.0481979,0.01013 -0.008272,-0.01461 -0.0165278,-0.02904 -0.0249175,-0.04457 0.0103829,0.016 0.0208345,0.03113 0.0312829,0.04554 0.0158174,0.0023 0.0318604,0.0038 0.0481253,0.0045 -0.002573,-0.0032 -0.005144,-0.0061 -0.007717,-0.0095 -0.0293666,-0.03791 -0.0590774,-0.08735 -0.0891575,-0.138957 0.0217314,0.03134 0.0433204,0.0602 0.065114,0.08432 0.0257676,0.02853 0.0522225,0.05073 0.0800277,0.06392 0.0624672,-0.0035 0.12306802,-0.01901 0.17889771,-0.04492 0.0231069,-0.02252 0.0446512,-0.05035 0.0649315,-0.08236 0.0244961,-0.03865 0.0475534,-0.08321 0.0699145,-0.131098 -0.024881,0.06612 -0.05012,0.129196 -0.0777726,0.182244 0.0456775,-0.02904 0.0867462,-0.06563 0.12120516,-0.108798 0.00113,-0.0035 0.00222,-0.007 0.00335,-0.01048 0.019287,-0.0612 0.039813,-0.125469 0.063694,-0.188245 h -0.094979 c -0.037057,0.08719 -0.073761,0.170048 -0.11338417,0.234151 -0.0467096,0.07558 -0.0968392,0.124609 -0.15470762,0.128917 -0.0379991,0.0028 -0.0779107,-0.02518 -0.11887711,-0.07209 -0.039509,-0.04525 -0.0796185,-0.107265 -0.12105962,-0.171767 0.0334228,0.04447 0.0661198,0.08608 0.0987612,0.117567 0.0429159,0.04142 0.0871762,0.06761 0.13593743,0.06381 0.0683841,-0.0054 0.12680911,-0.06223 0.18093462,-0.143795 0.0299906,-0.0452 0.0587678,-0.09927 0.0873388,-0.156783 h -0.039541 c -0.025,0.04931 -0.0499622,0.09497 -0.0753348,0.134046 -0.0506156,0.07797 -0.10224986,0.128673 -0.15605343,0.132883 -0.0357244,0.0028 -0.0731584,-0.02031 -0.11229309,-0.05944 -0.0391351,-0.03914 -0.0795602,-0.0934 -0.12105962,-0.14947 -0.0105598,-0.01425 -0.0222812,-0.0288 -0.0332115,-0.04329 0.002582,0.0029 0.005287,0.0059 0.00786,0.0088 0.0435203,0.04961 0.0842713,0.09622 0.12542476,0.12979 0.0411545,0.03357 0.0830339,0.05446 0.12848035,0.05071 0.0648013,-0.0054 0.12394961,-0.06311 0.18180784,-0.146414 0.0124187,-0.01787 0.0247676,-0.0375 0.037104,-0.05758 h -0.0426695 c -0.006444,0.01013 -0.0128817,0.021 -0.0193147,0.03049 -0.0552279,0.0814 -0.11035994,0.136197 -0.15998209,0.140303 -1.4524e-4,-3e-6 -2.9068e-4,-3e-6 -4.3593e-4,0 -0.0335079,0.0029 -0.0688622,-0.01563 -0.10618244,-0.0472 -0.0373202,-0.03158 -0.0759504,-0.0756 -0.11582149,-0.121059 -7.1686e-4,-8.6e-4 -0.001502,-0.0017 -0.002218,-0.0026 z m 1.32041577,0.04295 -0.070971,2.92e-4 -0.07097,3.36e-4 -0.00146,0.01071 c -0.00887,0.06576 -0.010827,0.08007 -0.012442,0.08982 -0.00103,0.0062 -0.00247,0.01532 -0.0032,0.02023 -7.127e-4,0.005 -0.00186,0.01215 -0.00248,0.01609 -6.279e-4,0.0038 -0.00179,0.01193 -0.00254,0.01782 -7.67e-4,0.0059 -0.00165,0.01211 -0.00199,0.01386 l -6.278e-4,0.0032 -0.044379,5.53e-4 c -0.039536,4.61e-4 -0.045725,7.89e-4 -0.056637,0.003 -0.060074,0.01257 -0.1062895,0.04503 -0.1296443,0.09112 -0.010399,0.02052 -0.014627,0.04068 -0.013568,0.06468 0.00268,0.06074 0.049053,0.109575 0.1094553,0.115275 h 3.65e-5 c 0.01628,0.0016 0.2159683,3.99e-4 0.2170196,-0.0012 5.373e-4,-7.88e-4 0.00129,-0.004 0.00175,-0.0073 0.00114,-0.0085 0.00792,-0.05428 0.00946,-0.06417 7.128e-4,-0.0045 0.00213,-0.012 0.00316,-0.01666 0.00103,-0.0048 0.00186,-0.0089 0.00186,-0.0093 6e-7,-4.89e-4 -0.037631,-8.58e-4 -0.083629,-8.58e-4 h -0.083613 l -0.00643,-0.003 c -0.013207,-0.0062 -0.023665,-0.02132 -0.023536,-0.03401 1.099e-4,-0.01081 0.00731,-0.02145 0.018771,-0.02782 0.01127,-0.0063 0.014247,-0.0064 0.1093833,-0.0064 h 0.087958 l 5.372e-4,-0.0027 c 3.345e-4,-0.0016 0.00118,-0.006 0.00192,-0.01013 7.384e-4,-0.004 0.00197,-0.01048 0.00265,-0.01425 0.00123,-0.0065 0.00497,-0.02784 0.016332,-0.09337 0.00275,-0.01587 0.00559,-0.03155 0.00625,-0.03481 6.731e-4,-0.0033 0.00211,-0.01104 0.00316,-0.01724 0.00105,-0.0062 0.00396,-0.02281 0.00643,-0.03689 0.00248,-0.01406 0.0059,-0.03358 0.00761,-0.0434 0.00171,-0.0098 0.00336,-0.01904 0.00371,-0.02052 z m 0.4468438,0.0011 -0.1310268,4.6e-4 c -0.094098,3.39e-4 -0.1331938,9.33e-4 -0.1386292,0.002 -0.021642,0.004 -0.053049,0.01689 -0.075262,0.03077 -0.023815,0.0149 -0.039748,0.03119 -0.051363,0.0526 -0.011701,0.02155 -0.015745,0.03756 -0.015717,0.06185 1.56e-5,0.01373 5.372e-4,0.01923 0.0027,0.02702 0.01258,0.04572 0.049124,0.08154 0.096942,0.09502 0.00985,0.0028 0.013784,0.0032 0.033247,0.0035 0.012141,2.23e-4 0.024836,6.78e-4 0.028192,0.0011 0.02009,0.0023 0.036298,0.01563 0.038268,0.03143 0.00171,0.0135 -0.00577,0.02471 -0.020953,0.0315 l -0.00829,0.0037 -0.1061454,5.65e-4 c -0.058391,3.08e-4 -0.1065058,9.32e-4 -0.1069091,0.0012 -8.459e-4,7.89e-4 -0.00923,0.03442 -0.018515,0.07424 -6.053e-4,0.0026 -0.00222,0.0092 -0.00358,0.0148 -0.00136,0.0055 -0.00218,0.01048 -0.00186,0.01093 3.346e-4,5.22e-4 0.05931,9.34e-4 0.1310266,9.34e-4 0.1112478,0 0.1316959,-2.71e-4 0.1393934,-0.0017 0.041968,-0.0084 0.09335,-0.03869 0.1146935,-0.0678 0.018977,-0.02589 0.027726,-0.05374 0.026227,-0.08371 -0.0015,-0.03017 -0.014019,-0.05727 -0.036776,-0.0797 -0.016972,-0.01673 -0.038262,-0.02943 -0.061257,-0.03644 -0.00987,-0.0029 -0.012977,-0.0034 -0.039103,-0.004 -0.03001,-9.31e-4 -0.033783,-0.0015 -0.044961,-0.0078 -0.019822,-0.01093 -0.023556,-0.0349 -0.00771,-0.04935 0.00464,-0.0041 0.014214,-0.0087 0.021753,-0.01003 0.00277,-5.2e-4 0.051535,-0.0013 0.1083648,-0.0017 l 0.1033446,-6.78e-4 0.011165,-0.04642 c 0.00614,-0.02552 0.011542,-0.04813 0.011966,-0.0503 z m 0.1585999,3.99e-4 c -0.060011,-2e-4 -0.1108862,-8.9e-5 -0.113057,2.92e-4 -0.00452,7.87e-4 -0.00368,-0.0027 -0.010546,0.04343 -0.00534,0.03587 -0.00766,0.04918 -0.0095,0.05471 -5.217e-4,0.0016 0.00914,0.0017 0.082792,0.0016 l 0.08341,-2.92e-4 0.00666,0.0028 c 0.018722,0.0081 0.029475,0.03022 0.022117,0.04551 -0.0033,0.0068 -0.010567,0.01407 -0.017206,0.0171 -0.012856,0.0059 -0.013006,0.0059 -0.1073453,0.0059 -0.048695,2.3e-5 -0.088859,4.61e-4 -0.089194,9.33e-4 -3.377e-4,5.52e-4 -0.00181,0.0079 -0.00327,0.01637 -0.00413,0.02389 -0.00987,0.05633 -0.028336,0.160711 -0.00938,0.05308 -0.017095,0.09686 -0.017095,0.09723 v 3.7e-5 c 0,3.69e-4 0.031788,6.79e-4 0.070606,6.79e-4 h 0.070569 l 6.449e-4,-0.0038 c 3.377e-4,-0.0022 0.00125,-0.0087 0.00202,-0.01455 7.956e-4,-0.0059 0.00251,-0.01793 0.00378,-0.02678 0.00129,-0.0088 0.00298,-0.02114 0.00374,-0.02736 7.957e-4,-0.0062 0.00276,-0.02013 0.00443,-0.03091 0.00294,-0.01899 0.00703,-0.04656 0.00905,-0.06125 l 9.849e-4,-0.0071 0.045433,-7.17e-4 c 0.040018,-6.23e-4 0.046764,-0.001 0.057074,-0.0033 0.037668,-0.0081 0.068578,-0.0234 0.09385,-0.04639 0.02329,-0.02117 0.036862,-0.04301 0.044852,-0.07209 0.00279,-0.01023 0.00328,-0.01459 0.00335,-0.02983 7.37e-5,-0.01882 -9.849e-4,-0.02579 -0.0064,-0.04165 -0.013154,-0.03852 -0.043039,-0.06599 -0.084901,-0.0781 l -0.00946,-0.0027 z m -0.2189115,0.130737 -0.06664,4.6e-4 c -0.027701,1.76e-4 -0.053226,5.52e-4 -0.072607,8.61e-4 0.00177,0.0027 0.00347,0.0054 0.00524,0.0081 0.017971,9.31e-4 0.028468,0.0023 0.037649,0.005 0.027703,0.0086 0.052902,0.02343 0.073443,0.04369 0.024099,0.02376 0.035471,0.05508 0.040196,0.08741 0.00552,-0.03119 0.013708,-0.07637 0.016296,-0.09119 -0.011517,-0.01715 -0.022749,-0.03516 -0.033576,-0.05439 z m 0.3455364,0.196176 c -0.050717,0.01655 -0.096055,0.01825 -0.139138,0.0054 -8.315e-4,0.0054 -0.00165,0.01104 -0.00243,0.01604 -0.00162,0.01048 -0.0037,0.02432 -0.00437,0.02972 -4.91e-4,0.0038 -0.00145,0.01048 -0.0023,0.01644 0.052369,0.003 0.1070185,-0.0089 0.1622371,-0.03575 3.272e-4,-3.85e-4 6.154e-4,-8.01e-4 8.602e-4,-0.0012 0.00351,-0.0021 0.00486,-0.0064 0.00304,-0.01002 l -0.00524,-0.0079 -0.0035,-0.0084 c -0.00149,-0.0036 -0.00547,-0.0055 -0.00919,-0.0044 z"
       sodipodi:nodetypes="sssccscccscsccccccccccccccccsccscccccccscccccccccccccccccccccccccccccccccccccccccccsccccccccccccccccccccccccccccccccsccccccccccccccccccccccccsccscscccccccccccccccccccccccccccccscccccccccccccccccccccccccccssscccccsccccccccccccccccccccccccccccccccc" /></g></svg>
