<?xml version="1.0" encoding="UTF-8" standalone="no"?>
<svg
   width="30"
   height="30"
   viewBox="0 0 30 30"
   version="1.1"
   id="svg1"
   sodipodi:docname="logo.svg"
   inkscape:version="1.4 (86a8ad7, 2024-10-11)"
   xml:space="preserve"
   xmlns:inkscape="http://www.inkscape.org/namespaces/inkscape"
   xmlns:sodipodi="http://sodipodi.sourceforge.net/DTD/sodipodi-0.dtd"
   xmlns="http://www.w3.org/2000/svg"
   xmlns:svg="http://www.w3.org/2000/svg"><defs
     id="defs1"><filter
       style="color-interpolation-filters:sRGB;"
       inkscape:label="Drop Shadow"
       id="filter35"
       x="-0.277199"
       y="-0.19265279"
       width="1.5851979"
       height="1.4388202"><feFlood
         result="flood"
         in="SourceGraphic"
         flood-opacity="0.498039"
         flood-color="rgb(205,255,88)"
         id="feFlood34" /><feGaussianBlur
         result="blur"
         in="SourceGraphic"
         stdDeviation="1.500000"
         id="feGaussianBlur34" /><feOffset
         result="offset"
         in="blur"
         dx="0.400000"
         dy="1.000000"
         id="feOffset34" /><feComposite
         result="comp1"
         operator="in"
         in="offset"
         in2="flood"
         id="feComposite34" /><feComposite
         result="comp2"
         operator="over"
         in="SourceGraphic"
         in2="comp1"
         id="feComposite35" /></filter></defs><sodipodi:namedview
     id="namedview1"
     pagecolor="#ffffff"
     bordercolor="#000000"
     borderopacity="0.25"
     inkscape:showpageshadow="2"
     inkscape:pageopacity="0.0"
     inkscape:pagecheckerboard="0"
     inkscape:deskcolor="#d1d1d1"
     inkscape:zoom="8"
     inkscape:cx="8.1875"
     inkscape:cy="9.3125"
     inkscape:window-width="1440"
     inkscape:window-height="837"
     inkscape:window-x="-8"
     inkscape:window-y="-8"
     inkscape:window-maximized="1"
     inkscape:current-layer="svg1" /><path
     id="path1"
     d="m 2.3310849,1.7314281 c -0.371591,0.015654 -0.6646182,0.3217528 -0.66405,0.6936732 V 25.869283 c 0,1.40042 1.1274139,2.527834 2.5278343,2.527834 H 25.80489 c 1.40042,0 2.527833,-1.127414 2.527833,-2.527834 4.47e-4,-7.814727 5.99e-4,-15.629454 -0.0025,-23.4441817 h -0.0025 c -0.0052,-0.3793452 -0.314372,-0.6840773 -0.693751,-0.683799 -0.0017,8.163e-4 -0.0033,0.00164 -0.005,0.00247 -0.0025,8.09e-4 -0.005,0.00163 -0.0075,0.00247 -0.0066,0.00236 -0.01322,0.00484 -0.01975,0.00741 -0.01239,0.00295 -0.02477,0.00624 -0.03704,0.00988 -0.02596,0.00675 -0.05151,0.014984 -0.07653,0.024686 -0.05097,0.010043 -0.100655,0.025769 -0.148114,0.046903 -0.105407,0.00808 -0.207589,0.040168 -0.298699,0.093806 -0.208405,-0.032095 -0.420088,0.03241 -0.57518,0.1752698 C 26.378459,1.92083 26.214,1.785427 26.017154,1.7339153 25.651379,1.7558633 25.365859,2.058687 25.365448,2.4251201 V 3.1163059 L 25.150714,2.2572372 C 24.950293,1.4679365 23.788812,1.6107586 23.785586,2.4251013 V 5.807067 L 21.93908,2.114059 C 21.611711,1.4592244 20.624676,1.6929957 20.625791,2.4251013 V 7.0685155 L 15.491129,1.9338523 C 15.054162,1.4941796 14.3039,1.8052264 14.306206,2.4251013 V 7.6239478 L 2.6717502,1.8054855 C 2.5663577,1.7521834 2.4490946,1.7266915 2.3310849,1.7314281 Z"
     sodipodi:nodetypes="ccssssccccccccccccccccccccccccc"
     style="display:inline;fill:#0a1220;fill-opacity:1;stroke-width:1" /><path
     id="path1-2"
     style="clip-rule:evenodd;display:inline;fill:#b3ff00;fill-opacity:1;fill-rule:evenodd;stroke-width:1;image-rendering:optimizeQuality;shape-rendering:geometricPrecision;text-rendering:geometricPrecision;filter:url(#filter35)"
     d="m 11.357446,8.6845058 c -0.645003,0 -1.173329,0.5283271 -1.173329,1.1733289 v 3.8251293 l -1.6776428,-0.0013 c 0,3.662754 -0.029997,8.218334 4.9614318,8.818479 v 3.338689 c 0,0.848711 0.683383,1.532095 1.532095,1.532095 0.848711,0 1.532094,-0.683384 1.532094,-1.532095 v -3.368054 c 4.929173,-0.474472 4.96182,-5.222916 4.961432,-8.787837 l -1.740204,-0.0013 0.0013,-3.825129 c 0,-0.6442304 -0.528712,-1.1716648 -1.173329,-1.1720522 -0.645004,0 -1.172052,0.5278218 -1.172052,1.1720522 v 3.825129 l -4.879721,0.0013 V 9.856558 C 12.529895,9.2119405 12.002062,8.6841179 11.357446,8.6845058 Z" /></svg>
