<?xml version="1.0" encoding="UTF-8" standalone="no"?>
<svg
   width="30"
   height="30"
   viewBox="0 0 36.281399 36.2814"
   version="1.1"
   id="svg7"
   sodipodi:docname="skia.svg"
   inkscape:version="1.4 (86a8ad7, 2024-10-11)"
   xmlns:inkscape="http://www.inkscape.org/namespaces/inkscape"
   xmlns:sodipodi="http://sodipodi.sourceforge.net/DTD/sodipodi-0.dtd"
   xmlns="http://www.w3.org/2000/svg"
   xmlns:svg="http://www.w3.org/2000/svg">
  <defs
     id="defs8" />
  <sodipodi:namedview
     id="namedview7"
     pagecolor="#000000"
     bordercolor="#000000"
     borderopacity="0.25"
     inkscape:showpageshadow="2"
     inkscape:pageopacity="0.0"
     inkscape:pagecheckerboard="0"
     inkscape:deskcolor="#d1d1d1"
     inkscape:zoom="7.1285286"
     inkscape:cx="12.134341"
     inkscape:cy="19.709537"
     inkscape:window-width="1920"
     inkscape:window-height="1017"
     inkscape:window-x="-8"
     inkscape:window-y="-8"
     inkscape:window-maximized="1"
     inkscape:current-layer="svg7" />
  <path
     id="rect1"
     style="fill:#ffffff;fill-opacity:1;stroke-width:0.0638442"
     d="m 21.947408,6.0275731 a 2.0634834,2.5014092 0 0 0 -2.06345,2.5013679 2.0634834,2.5014092 0 0 0 2.06345,2.501369 2.0634834,2.5014092 0 0 0 2.063449,-2.501369 2.0634834,2.5014092 0 0 0 -2.063449,-2.5013679 z M 4.4668276,11.477739 c -0.2984,2.31e-4 -0.5971178,0.02114 -0.8950002,0.06444 -1.058902,0.141961 -2.1516437,0.630303 -2.8394716,1.661653 -0.6151649,0.908205 -0.7435196,2.159378 -0.6017213,3.290785 0.099471,0.91419 0.5000569,1.763306 1.0862978,2.348251 0.9481442,0.948398 2.1489342,1.376969 3.2120691,2.088481 0.2871239,0.204388 0.6073638,0.494189 0.6228841,0.935462 0.038095,0.427592 -0.2129922,0.821002 -0.5325676,0.969803 C 4.0861627,23.03844 3.6098908,23.00603 3.1555716,22.96327 2.0543416,22.826438 0.9862314,22.398812 -7.9e-6,21.795908 l 0.00499,3.442891 c 0.7280393,0.40108 1.4970759,0.714927 2.2970726,0.805576 1.0779497,0.12229 2.1918102,0.148048 3.2358983,-0.247046 0.8514957,-0.318983 1.6564974,-0.934851 2.1432684,-1.857594 0.550967,-1.014247 0.66446,-2.311522 0.439418,-3.478846 C 7.9774344,19.726287 7.6260574,19.060158 7.1399924,18.588953 6.096615,17.54392 4.7435453,17.140347 3.6211515,16.251811 3.334733,16.03032 3.1302733,15.581314 3.2777154,15.175958 3.4308012,14.735539 3.8526767,14.582368 4.2138745,14.56612 5.276304,14.50968 6.2998266,14.95948 7.2571414,15.470879 l 0.969987,-2.973443 C 7.0463574,11.863746 5.7598947,11.47673 4.4668276,11.477739 Z m 23.6939244,0.147461 -3.830621,14.302824 3.482852,0.0045 0.563395,-2.705792 -0.0025,0.02807 h 3.827455 l 0.607053,2.671655 3.473021,0.0016 -3.878623,-14.301991 z m -7.987847,0.0069 v 14.277169 h 0.853174 V 11.632067 Z m 1.319254,0 v 14.277169 h 0.853175 V 11.632067 Z m 1.260932,0 v 14.277169 h 0.853176 V 11.632067 Z m -6.486459,0.0505 -3.441194,6.183832 V 11.683376 H 9.6345324 v 14.244648 h 3.1909056 l 0.01266,-4.786395 0.913663,-0.658519 2.335066,5.443297 3.584334,0.0016 -3.63799,-7.880431 3.702977,-6.364217 z m 14.033056,2.308054 1.271263,6.110301 h -2.543693 z m -6.427472,12.613092 -3.86878,0.01373 1.882316,2.980511 c -0.0017,-4.28e-4 -0.0033,-7.68e-4 -0.0049,-0.0012 -0.01838,-0.0045 -0.03725,-0.009 -0.05649,-0.01313 -0.01924,-0.0042 -0.0389,-0.0084 -0.05899,-0.01233 -0.02008,-0.004 -0.04044,-0.0079 -0.06133,-0.01176 -0.02083,-0.0038 -0.04219,-0.0072 -0.06382,-0.01079 -0.02159,-0.0035 -0.04353,-0.0069 -0.06582,-0.01006 -0.02224,-0.0033 -0.0447,-0.0065 -0.06765,-0.0095 -0.0229,-0.0029 -0.04618,-0.0057 -0.06966,-0.0082 -0.02346,-0.0025 -0.04712,-0.0055 -0.07115,-0.0079 -0.02398,-0.0024 -0.04836,-0.0046 -0.07282,-0.0067 -0.02446,-0.0022 -0.0491,-0.0041 -0.07398,-0.0058 -0.02483,-0.0018 -0.04977,-0.0035 -0.07499,-0.0051 -0.02521,-0.0016 -0.05049,-0.0029 -0.07599,-0.0042 -0.02545,-0.0012 -0.05109,-0.0024 -0.07681,-0.0033 -0.02568,-9.15e-4 -0.05145,-0.0016 -0.07732,-0.0023 -0.02582,-5.97e-4 -0.05169,-0.001 -0.07765,-0.0015 -0.02596,-2.57e-4 -0.05203,-4.29e-4 -0.07799,-4.29e-4 H 9.6120364 c -0.02596,0 -0.05185,8.6e-5 -0.07782,4.29e-4 -0.02596,3.42e-4 -0.052,7.69e-4 -0.07782,0.0015 -0.02587,5.99e-4 -0.05164,0.0013 -0.07732,0.0023 -0.02573,9.16e-4 -0.05133,0.0021 -0.07683,0.0033 -0.02545,0.0012 -0.05078,0.0025 -0.07599,0.0042 -0.02521,0.0016 -0.05016,0.0033 -0.07499,0.0051 -0.02488,0.0018 -0.04953,0.0038 -0.07398,0.0058 -0.02446,0.0022 -0.04867,0.0042 -0.07265,0.0067 -0.02403,0.0025 -0.04786,0.0052 -0.07132,0.0079 -0.02347,0.0025 -0.04658,0.0053 -0.06949,0.0082 -0.02295,0.0029 -0.04557,0.0062 -0.06782,0.0095 -0.02229,0.0033 -0.04423,0.0067 -0.06582,0.01006 -0.02164,0.0036 -0.04282,0.007 -0.06366,0.01079 -0.02088,0.0038 -0.04141,0.0078 -0.06149,0.01176 -0.02008,0.004 -0.03975,0.008 -0.05899,0.01233 -0.01924,0.0041 -0.0381,0.0087 -0.05649,0.01313 -0.01835,0.0045 -0.03621,0.009 -0.05365,0.01354 -0.01745,0.0047 -0.03448,0.0095 -0.05099,0.01434 -0.01647,0.0048 -0.03235,0.0099 -0.04783,0.01495 -0.01548,0.0051 -0.03038,0.01006 -0.04483,0.01535 -0.01444,0.0052 -0.0283,0.01067 -0.04166,0.01596 -0.01336,0.0055 -0.02627,0.01091 -0.03849,0.01656 -0.01227,0.0056 -0.02389,0.01103 -0.035,0.01676 -0.0111,0.0058 -0.02157,0.01152 -0.03149,0.01738 -0.01,0.0058 -0.01941,0.01164 -0.02816,0.01758 -0.0088,0.0058 -0.0168,0.01188 -0.02433,0.01798 -0.0075,0.0059 -0.01448,0.012 -0.02082,0.01818 -0.0063,0.0061 -0.01209,0.01222 -0.01716,0.01838 -0.005,0.0061 -0.0094,0.01232 -0.01317,0.01858 -0.0038,0.0062 -0.0071,0.01251 -0.0097,0.01878 -0.0025,0.0062 -0.0044,0.01251 -0.0057,0.01879 -0.0013,0.0062 -0.0021,0.01267 -0.0021,0.01898 0,0.0062 7.34e-4,0.01246 0.0021,0.01878 0.0013,0.0062 0.0032,0.01251 0.0057,0.01879 0.0025,0.0062 0.0058,0.01257 0.0097,0.01878 0.0038,0.0062 0.0081,0.01243 0.01317,0.01858 0.0051,0.0061 0.01087,0.01228 0.01716,0.01838 0.0063,0.0061 0.01326,0.01239 0.02082,0.01838 0.0075,0.0059 0.01558,0.012 0.02433,0.01798 0.0088,0.0058 0.01819,0.01176 0.02816,0.01758 0.0099,0.0058 0.0204,0.01152 0.03149,0.01717 0.0111,0.0058 0.02272,0.0114 0.035,0.01697 0.01223,0.0057 0.02514,0.01091 0.03849,0.01636 0.01335,0.0055 0.02722,0.01079 0.04166,0.01597 0.01444,0.0052 0.02935,0.01055 0.04483,0.01555 0.01548,0.005 0.03136,0.0098 0.04783,0.01474 0.01651,0.0047 0.03354,0.0097 0.05099,0.01434 0.01745,0.0047 0.03531,0.0092 0.05365,0.01373 0.01838,0.0045 0.03725,0.0087 0.05649,0.01292 0.01923,0.0041 0.03891,0.0085 0.05899,0.01252 0.02008,0.004 0.04061,0.0078 0.06149,0.01152 0.02083,0.0038 0.04202,0.0074 0.06366,0.01091 0.02159,0.0035 0.04353,0.0069 0.06582,0.01006 0.02225,0.0033 0.04487,0.0063 0.06782,0.0092 0.0229,0.0029 0.04602,0.0058 0.06949,0.0085 0.02347,0.0025 0.04729,0.0053 0.07132,0.0076 0.02398,0.0025 0.0482,0.0047 0.07265,0.0069 0.02446,0.0022 0.0491,0.0041 0.07398,0.0058 0.02483,0.0018 0.04978,0.0035 0.07499,0.0051 0.02521,0.0016 0.05055,0.0028 0.07599,0.0041 0.02548,0.0012 0.05109,0.0024 0.07683,0.0033 0.02568,9.15e-4 0.05145,0.0018 0.07732,0.0025 0.02583,5.99e-4 0.05186,10e-4 0.07782,0.0015 0.02596,2.58e-4 0.05186,4.28e-4 0.07782,4.28e-4 H 20.758296 c 0.02596,0 0.05203,-8.6e-5 0.07799,-4.28e-4 0.02596,-3.42e-4 0.05184,-7.68e-4 0.07765,-0.0015 0.02587,-5.98e-4 0.05164,-0.0016 0.07732,-0.0025 0.02573,-9.15e-4 0.05138,-0.0019 0.07681,-0.0033 0.02548,-0.0012 0.05078,-0.0025 0.07599,-0.0041 0.0252,-0.0016 0.05016,-0.0033 0.07499,-0.0051 0.02488,-0.0018 0.04953,-0.0038 0.07398,-0.0058 0.02446,-0.0022 0.04884,-0.0044 0.07282,-0.0069 0.02403,-0.0024 0.04769,-0.005 0.07115,-0.0076 0.02346,-0.0025 0.04675,-0.0056 0.06966,-0.0085 0.02295,-0.0029 0.04541,-0.0059 0.06765,-0.0092 0.0223,-0.0033 0.04424,-0.0067 0.06582,-0.01006 0.02164,-0.0036 0.04299,-0.0072 0.06382,-0.01091 0.02088,-0.0038 0.04124,-0.0075 0.06133,-0.01152 0.02008,-0.0041 0.03976,-0.0082 0.05899,-0.01252 0.01924,-0.0041 0.0381,-0.0085 0.05649,-0.01292 0.01835,-0.0045 0.03621,-0.0091 0.05366,-0.01373 0.01744,-0.0047 0.03449,-0.0095 0.05099,-0.01434 0.01646,-0.0048 0.03235,-0.0097 0.04783,-0.01474 0.01548,-0.0051 0.03056,-0.0103 0.045,-0.01555 0.01443,-0.0052 0.0283,-0.01055 0.04166,-0.01597 0.01336,-0.0055 0.0261,-0.01079 0.03832,-0.01636 0.01227,-0.0056 0.02389,-0.01127 0.035,-0.01697 0.0111,-0.0058 0.02174,-0.0114 0.03166,-0.01717 0.01,-0.0058 0.01924,-0.01164 0.028,-0.01758 0.0088,-0.0058 0.01697,-0.01188 0.0245,-0.01798 0.0075,-0.0059 0.01448,-0.01222 0.02083,-0.01838 0.0063,-0.0061 0.01192,-0.01222 0.017,-0.01838 0.005,-0.0061 0.0095,-0.01232 0.01333,-0.01858 0.0038,-0.0062 0.0069,-0.01251 0.0095,-0.01878 0.0025,-0.0062 0.0046,-0.01251 0.0058,-0.01879 0.0013,-0.0063 0.0019,-0.01251 0.0019,-0.01878 0,-0.0063 -5.65e-4,-0.0127 -0.0019,-0.01898 -0.0013,-0.0062 -0.0033,-0.01251 -0.0058,-0.01879 -0.0026,-0.0062 -0.0057,-0.01257 -0.0095,-0.01878 -0.0038,-0.0062 -0.0083,-0.01242 -0.01333,-0.01858 -0.005,-0.0061 -0.0107,-0.01228 -0.017,-0.01838 -0.0063,-0.0061 -0.01331,-0.01218 -0.02083,-0.01818 -0.0075,-0.0059 -0.01575,-0.012 -0.0245,-0.01798 -0.0088,-0.0058 -0.01802,-0.01176 -0.028,-0.01758 -0.0099,-0.0058 -0.02056,-0.01164 -0.03166,-0.01738 -0.0111,-0.0058 -0.02272,-0.01115 -0.035,-0.01676 -0.01223,-0.0057 -0.02497,-0.01115 -0.03832,-0.01656 -0.01336,-0.0055 -0.02723,-0.01079 -0.04166,-0.01596 -0.01443,-0.0052 -0.02952,-0.0103 -0.045,-0.01535 -0.01547,-0.005 -0.03136,-0.01006 -0.04783,-0.01495 -7.05e-4,-1.72e-4 -0.0014,-4.28e-4 -0.0021,-5.99e-4 z" />
</svg>
