<?xml version="1.0" encoding="UTF-8" standalone="no"?>
<svg
   width="30"
   height="30"
   viewBox="0 0 30 30"
   version="1.1"
   id="svg4"
   sodipodi:docname="Tool.svg"
   inkscape:version="1.4 (86a8ad7, 2024-10-11)"
   xmlns:inkscape="http://www.inkscape.org/namespaces/inkscape"
   xmlns:sodipodi="http://sodipodi.sourceforge.net/DTD/sodipodi-0.dtd"
   xmlns="http://www.w3.org/2000/svg"
   xmlns:svg="http://www.w3.org/2000/svg">
  <defs
     id="defs4" />
  <sodipodi:namedview
     id="namedview4"
     pagecolor="#000000"
     bordercolor="#000000"
     borderopacity="0.25"
     inkscape:showpageshadow="2"
     inkscape:pageopacity="0.0"
     inkscape:pagecheckerboard="0"
     inkscape:deskcolor="#d1d1d1"
     inkscape:zoom="13.589708"
     inkscape:cx="14.790604"
     inkscape:cy="9.3820998"
     inkscape:window-width="1440"
     inkscape:window-height="837"
     inkscape:window-x="-8"
     inkscape:window-y="-8"
     inkscape:window-maximized="1"
     inkscape:current-layer="svg4" />
  <path
     id="path1"
     d="m 25.143603,2.7282388 -0.02564,0.00641 c -0.108776,0.028291 -0.218235,0.069048 -0.273878,0.1745467 -0.08929,0.169241 -0.0424,2.3148174 -0.04236,2.6436555 7.7e-5,0.299048 0.0525,0.7321291 -0.08117,1.0055939 -0.130538,0.2670215 -0.39622,0.4266732 -0.66683,0.5234861 -0.635327,0.2272374 -1.467931,0.2123455 -2.081503,-0.078834 -0.24032,-0.1140244 -0.445066,-0.2834 -0.535091,-0.5410437 -0.136782,-0.3914276 -0.07249,-2.2373952 -0.07121,-2.7924273 6.41e-4,-0.2162042 0.03188,-0.4854204 -0.02208,-0.6931342 -0.02374,-0.091411 -0.08138,-0.1589852 -0.165729,-0.2006971 -0.07139,-0.035307 -0.139461,-0.04539 -0.218331,-0.044541 -0.458453,0.1284581 -1.010554,0.572817 -1.339311,0.9070185 -1.810502,1.8406748 -1.755324,4.6586014 -0.09322,6.5516378 0.125254,0.143235 0.259572,0.278271 0.402073,0.404333 0.277518,0.247804 0.74442,0.581356 0.808667,0.980574 0.06679,0.414847 0.04835,0.957481 0.04831,1.384984 l -6.4e-4,2.065833 9.6e-4,7.549993 -9.6e-4,1.424101 c -2.35e-4,0.543188 -0.01935,1.011893 0.100457,1.550258 0.311514,1.399703 1.731639,1.998138 3.055904,1.601736 0.527635,-0.158245 0.969854,-0.521349 1.227847,-1.008084 0.340491,-0.64421 0.303687,-1.290727 0.298674,-1.998757 l -0.01023,-1.152785 -0.0043,-7.693113 -3.21e-4,-2.255452 C 25.453605,12.444932 25.337037,11.451846 25.80884,11.019829 26.068916,10.78171 26.329886,10.58596 26.581935,10.32029 27.443172,9.4139994 27.9243,8.2122388 27.926539,6.9620221 27.936599,5.6971057 27.491536,4.5450956 26.594235,3.6467147 26.219635,3.2716503 25.670899,2.8478221 25.143683,2.7282388 Z M 12.47014,2.9192153 c -0.701551,-0.00901 -0.760638,0.057222 -0.758324,0.7155904 -0.253322,0.020537 -0.589606,0.061685 -0.799172,-0.1119164 -0.182979,-0.1504884 -0.195843,-0.4336161 -0.423853,-0.5395379 -0.08162,-0.039899 -0.178747,-0.056751 -0.269506,-0.05999 -0.203852,-0.00734 -0.4099059,-0.00471 -0.6142237,-0.00346 -0.338293,0.00224 -0.6771787,6.408e-4 -1.0154684,0.00288 -0.6162335,0.0041 -1.2342933,-0.014931 -1.8499852,0.00842 C 5.4219419,3.0092359 4.2024026,3.6768349 3.3455414,4.6721441 2.7807822,5.3240726 2.3723297,6.0962603 2.1513805,6.9300084 2.0634039,7.2747828 1.9319052,7.9175929 2.5129083,7.8644589 2.5666574,7.8598134 2.6190544,7.8452355 2.6674817,7.8214239 2.8190114,7.7478008 2.9916325,7.6185513 3.1376835,7.5281045 3.3589018,7.3910821 3.5940892,7.247793 3.8274248,7.1332654 4.3079079,6.8951465 4.8259603,6.7419828 5.3586931,6.6803969 6.2414453,6.5830809 6.1670597,6.9050659 6.1637404,7.6364035 l -0.00474,0.989241 C 6.1567604,9.1400092 6.0660774,9.4257899 6.659351,9.529046 l 0.00192,11.546835 -0.00423,3.353668 c -0.00288,0.606702 -0.028995,1.252209 0.013777,1.86084 0.025728,0.180973 0.1448303,0.397514 0.2743298,0.519564 0.4987742,0.470107 1.3167814,0.487452 1.95806,0.442924 0.6225613,-0.04321 1.3586972,-0.279296 1.4720272,-0.987059 0.02259,-0.167389 0.02544,-0.331609 0.0205,-0.500197 -0.01288,-0.437073 0.0052,-0.884598 -0.02615,-1.320319 0.02082,-0.149447 -0.0016,-0.820512 -0.0019,-1.025872 l -3.07e-4,-2.524427 3.2e-4,-8.532004 -0.0026,-1.730985 c -3.2e-4,-0.303871 -0.02012,-0.6783837 0.02819,-0.9732635 0.03034,-0.1853343 0.293416,-0.1540127 0.405086,-0.4062194 0.03677,-0.206054 0.01471,-0.6384687 -0.0047,-0.8548651 0.03118,-0.8185422 -0.148166,-1.1714739 0.895186,-1.1521799 0.0067,0.262738 0.01948,0.6031391 0.3506,0.6162591 0.70371,0.02781 1.433657,0.00557 2.139914,0.0092 0.174608,9.613e-4 0.385676,-0.031655 0.503212,-0.1636917 0.06143,-0.069689 0.100958,-0.1559223 0.113653,-0.2479518 0.01624,-0.1222042 0.0086,-0.4774618 0.0086,-0.6147532 L 14.80467,5.6368181 14.804029,4.1559699 c -1.54e-4,-0.4145752 0.124975,-1.2228169 -0.482034,-1.2300321 -0.616157,-0.00731 -1.23521,0.00257 -1.852096,-0.0068 z"
     style="stroke-width:1;fill:#ffffff;fill-opacity:1" />
</svg>
